<?xml version="1.0" encoding="utf-8"?>
<!-- Generator: Adobe Illustrator 24.0.0, SVG Export Plug-In . SVG Version: 6.00 Build 0)  -->
<svg version="1.1" id="Layer_1" xmlns="http://www.w3.org/2000/svg" xmlns:xlink="http://www.w3.org/1999/xlink" x="0px" y="0px"
	 viewBox="0 0 635.156 96.879" style="enable-background:new 0 0 635.156 96.879;" xml:space="preserve">
<style type="text/css">
	.st0{fill:#FF730B;}
	.st1{fill:#173647;}
	.st2{fill:#163546;}
	.st3{fill:#484465;}
	.st4{fill:#D2E1E8;}
	.st5{fill:#EFF4F4;}
	.st6{fill:#006D93;}
</style>
<g>
	<rect x="147" class="st0" width="353.156" height="96.879"/>
	<rect class="st1" width="150.156" height="96.879"/>
	<rect x="497" class="st4" width="138.156" height="96.879"/>
	<path class="st5" d="M80.578,66.5H65.545l-2.667,8.214h20.367L80.578,66.5z M120.893,74.714l-7.887-24.271l5.094-15.679L99.157,21
		l-13.343,9.697H60.309L46.967,21L28.023,34.765l5.094,15.679L25.23,74.714h24.881l-1.933-5.954l24.885-18.078L97.945,68.76
		l-1.933,5.954H120.893z M65.545,66.5l-2.667,8.214h20.367L80.578,66.5H65.545z M80.578,66.5H65.545l-2.667,8.214h20.367
		L80.578,66.5z"/>
	<g>
		<path class="st5" d="M429.763,64.232c-2.014,0-3.741,0-5.65,0c0-0.619,0-1.166,0-1.713c0-7.176,0.002-14.352-0.002-21.528
			c-0.001-1.934-0.29-2.233-2.21-2.239c-3.537-0.011-7.073-0.01-10.61-0.001c-1.923,0.005-2.244,0.309-2.247,2.234
			c-0.012,7.125-0.004,14.249-0.01,21.374c-0.001,0.598-0.056,1.195-0.09,1.866c-1.855,0-3.572,0-5.499,0c0-0.665,0-1.262,0-1.859
			c0-7.073,0.003-14.147-0.002-21.22c-0.002-2.091-0.306-2.392-2.399-2.395c-3.434-0.006-6.868-0.006-10.303,0
			c-2.142,0.004-2.409,0.265-2.41,2.367c-0.004,7.073-0.002,14.147-0.002,21.22c0,0.6,0,1.2,0,1.884c-1.94,0-3.704,0-5.567,0
			c0-10.396,0-20.719,0-31.18c0.657,0,1.21,0,1.763,0c12.455,0,24.911-0.002,37.366,0.001c5.079,0.001,7.875,2.814,7.873,7.893
			c-0.003,7.125-0.001,14.249-0.001,21.374C429.763,62.912,429.763,63.515,429.763,64.232z"/>
		<path class="st5" d="M262.101,33.094c1.994,0,3.882,0,6.016,0c-3.93,10.459-7.822,20.816-11.708,31.159c-1.617,0-3.092,0-4.686,0
			c-3.478-7.675-6.957-15.351-10.616-23.424c-3.435,8.025-6.722,15.705-10.024,23.418c-1.524,0-2.999,0-4.686,0
			c-4.04-10.275-8.108-20.621-12.235-31.118c2.089,0,3.959,0,6.018,0c2.765,6.758,5.562,13.596,8.36,20.433
			c0.13,0.013,0.261,0.027,0.391,0.04c2.96-6.804,5.92-13.609,8.907-20.474c2.165,0,4.3,0,6.593,0
			c3.131,6.792,6.292,13.649,9.642,20.918C256.853,46.79,259.475,39.947,262.101,33.094z"/>
		<path class="st5" d="M211.379,64.232c-0.672,0.03-1.172,0.072-1.672,0.072c-7.584,0.004-15.168,0.01-22.752,0
			c-4.569-0.006-7.42-2.91-7.419-7.52c0-3.532,0-7.065,0-10.843c8.691,0,17.308,0,26.116,0c0-2.169,0.085-4.101-0.032-6.021
			c-0.07-1.149-1.091-1.172-1.997-1.171c-6.866,0.002-13.733,0.001-20.599,0.001c-1.074,0-2.148,0-3.355,0c0-1.869,0-3.677,0-5.632
			c0.46-0.024,0.953-0.073,1.445-0.073c7.584-0.005,15.168-0.012,22.752,0c4.635,0.008,7.516,2.954,7.514,7.628
			C211.376,48.458,211.379,56.244,211.379,64.232z M205.556,58.615c0-2.508,0-4.732,0-7.011c-6.81,0-13.494,0-20.317,0
			c0,1.704-0.006,3.286,0.002,4.868c0.009,1.86,0.271,2.136,2.137,2.14c5.176,0.01,10.353,0.004,15.529,0.004
			C203.766,58.616,204.624,58.615,205.556,58.615z"/>
		<path class="st5" d="M302.055,51.515c-8.761,0-17.346,0-26.077,0c0,2.039-0.028,3.876,0.01,5.712
			c0.026,1.283,0.966,1.391,1.955,1.39c5.69-0.002,11.379-0.001,17.069,0c2.292,0,4.585,0,6.984,0c0,1.947,0,3.71,0,5.598
			c-0.525,0.032-1.018,0.088-1.511,0.088c-7.586,0.005-15.172,0.01-22.758,0.001c-4.601-0.006-7.447-2.88-7.446-7.485
			c0.001-5.587-0.006-11.174,0.002-16.761c0.005-3.768,2.804-6.897,6.553-6.971c6.2-0.122,12.404-0.102,18.605-0.011
			c3.376,0.05,6.336,2.635,6.553,5.996C302.254,43.094,302.055,47.146,302.055,51.515z M275.983,45.664c6.909,0,13.643,0,20.439,0
			c0-1.917-0.005-3.606,0.002-5.294c0.004-0.99-0.473-1.594-1.461-1.598c-5.842-0.023-11.684-0.042-17.525,0.042
			c-0.491,0.007-1.35,0.757-1.389,1.217C275.89,41.899,275.983,43.79,275.983,45.664z"/>
		<path class="st5" d="M467.318,58.617c0,1.961,0,3.694,0,5.619c-0.496,0.024-0.984,0.068-1.471,0.068
			c-7.685,0.004-15.37,0.015-23.056-0.002c-4.289-0.009-7.26-2.99-7.262-7.238c-0.003-5.585-0.003-11.169,0-16.754
			c0.002-4.173,2.95-7.229,7.105-7.257c5.892-0.04,11.784-0.042,17.676,0.001c4.11,0.03,7.057,3.046,7.062,7.117
			c0.005,3.68,0.001,7.361,0.001,11.292c-8.736,0-17.354,0-26.128,0c0,2.131-0.064,4.016,0.024,5.894
			c0.054,1.152,0.999,1.261,1.928,1.261c4.56-0.004,9.12-0.001,13.68-0.001C460.3,58.617,463.724,58.617,467.318,58.617z
			 M461.654,45.799c0-2.026,0.094-3.92-0.067-5.791c-0.039-0.454-0.911-1.189-1.409-1.196c-5.79-0.086-11.582-0.087-17.372-0.006
			c-0.523,0.007-1.444,0.702-1.482,1.137c-0.164,1.911-0.071,3.844-0.071,5.857C448.106,45.799,454.746,45.799,461.654,45.799z"/>
		<path class="st5" d="M307.854,56.394c1.695,0,3.417,0,5.132,0c0.754,2.221,0.754,2.222,3.232,2.223
			c5.125,0,10.251,0.007,15.376-0.004c1.872-0.004,2.129-0.274,2.145-2.137c0.008-0.974,0.012-1.948-0.001-2.921
			c-0.022-1.699-0.346-2.057-2.096-2.066c-4.972-0.024-9.943-0.008-14.915-0.013c-0.871-0.001-1.744,0.002-2.612-0.048
			c-3.628-0.211-6.393-3.045-6.505-6.701c-0.05-1.639-0.055-3.282,0.001-4.92c0.126-3.668,3.008-6.674,6.686-6.731
			c6.149-0.096,12.302-0.106,18.451,0.001c4.143,0.072,6.987,3.566,6.554,7.911c-1.737,0-3.494,0-5.255,0
			c-0.829-2.239-0.829-2.239-3.317-2.239c-5.074,0-10.148-0.006-15.223,0.003c-1.908,0.003-2.22,0.329-2.234,2.239
			c-0.006,0.871-0.007,1.743,0,2.614c0.015,1.861,0.394,2.273,2.239,2.281c4.408,0.018,8.816,0.003,13.224,0.009
			c1.486,0.002,2.975-0.028,4.458,0.054c3.338,0.183,6.162,3.136,6.219,6.463c0.027,1.588,0.007,3.178,0.004,4.767
			c-0.008,4.109-2.934,7.105-7.023,7.121c-5.997,0.024-11.994,0.045-17.99-0.011C310.198,64.249,306.907,60.279,307.854,56.394z"/>
		<path class="st5" d="M360.743,64.305c-2.919,0-5.838,0.022-8.756-0.005c-4.004-0.036-6.958-3.021-6.963-7.016
			c-0.008-5.735-0.008-11.47,0-17.205c0.005-3.916,2.892-6.968,6.817-7.015c6.041-0.072,12.085-0.072,18.126,0
			c3.847,0.046,6.807,3.029,6.848,6.87c0.063,5.837,0.061,11.675,0.001,17.512c-0.04,3.897-3.078,6.816-7.01,6.852
			C366.786,64.327,363.764,64.305,360.743,64.305z M360.917,58.614c2.766,0,5.532-0.02,8.297,0.009
			c1.337,0.014,1.972-0.529,1.964-1.918c-0.029-5.327-0.028-10.654,0-15.98c0.007-1.341-0.514-1.988-1.899-1.983
			c-5.583,0.021-11.166,0.02-16.748,0.001c-1.283-0.004-1.855,0.522-1.847,1.841c0.031,5.378,0.037,10.756-0.003,16.134
			c-0.011,1.403,0.592,1.927,1.939,1.909C355.385,58.589,358.151,58.615,360.917,58.614z"/>
	</g>
	<path class="st2" d="M616.897,41.536l-21.858-20.312v7.589l13.932,12.723h-33.575h-6.25h-8.482h-6.696h-33.15l14.177-12.946V21
		l-22.321,20.536v15.394c0,8.387,6.799,14.071,15.187,14.071h17.617c8.387,0,15.187-5.683,15.187-14.071v-9.813h8.482v9.813
		c0,8.387,6.799,14.071,15.187,14.071h17.617c8.387,0,15.187-5.683,15.187-14.071V41.536H616.897z"/>
</g>
</svg>
